<svg xmlns="http://www.w3.org/2000/svg" xmlns:xlink="http://www.w3.org/1999/xlink" viewBox="0 0 762.19 232.33"><defs><style>.cls-1{fill:url(#未命名的渐变_348);}.cls-2{fill:url(#未命名的渐变_348-2);}.cls-3{fill:url(#未命名的渐变_348-3);}.cls-4{fill:url(#未命名的渐变_348-4);}.cls-5{fill:url(#未命名的渐变_348-5);}.cls-6{fill:url(#未命名的渐变_348-6);}.cls-7{fill:url(#未命名的渐变_348-7);}.cls-8{fill:url(#未命名的渐变_348-8);}.cls-9{fill:url(#未命名的渐变_348-9);}.cls-10{fill:url(#未命名的渐变_348-10);}.cls-11{fill:url(#未命名的渐变_348-11);}.cls-12{fill:url(#未命名的渐变_348-12);}.cls-13{fill:url(#未命名的渐变_348-13);}.cls-14{fill:url(#未命名的渐变_348-14);}</style><linearGradient id="未命名的渐变_348" x1="1.45" y1="228.71" x2="-0.8" y2="230.96" gradientUnits="userSpaceOnUse"><stop offset="0" stop-color="#15a6ff"/><stop offset="0" stop-color="#3db4fd"/><stop offset="0" stop-color="#74c7f9"/><stop offset="0" stop-color="#a1d6f7"/><stop offset="0" stop-color="#c4e2f5"/><stop offset="0" stop-color="#ddebf3"/><stop offset="0" stop-color="#edf0f2"/><stop offset="0" stop-color="#f2f2f2"/><stop offset="0.15" stop-color="#e0e0e0"/><stop offset="0.45" stop-color="#b1b1b1"/><stop offset="0.86" stop-color="#676767"/><stop offset="1" stop-color="#4d4d4d"/></linearGradient><linearGradient id="未命名的渐变_348-2" x1="122.9" y1="70.41" x2="16.51" y2="176.8" xlink:href="#未命名的渐变_348"/><linearGradient id="未命名的渐变_348-3" x1="210.14" y1="29.79" x2="59.2" y2="180.73" xlink:href="#未命名的渐变_348"/><linearGradient id="未命名的渐变_348-4" x1="243.14" y1="70.86" x2="140.06" y2="173.94" xlink:href="#未命名的渐变_348"/><linearGradient id="未命名的渐变_348-5" x1="2.23" y1="226.88" x2="-1.31" y2="230.41" xlink:href="#未命名的渐变_348"/><linearGradient id="未命名的渐变_348-6" x1="351.67" y1="106.31" x2="280.77" y2="177.22" xlink:href="#未命名的渐变_348"/><linearGradient id="未命名的渐变_348-7" x1="297.48" y1="85.66" x2="269" y2="114.14" xlink:href="#未命名的渐变_348"/><linearGradient id="未命名的渐变_348-8" x1="238.41" y1="163.02" x2="236.37" y2="165.07" xlink:href="#未命名的渐变_348"/><linearGradient id="未命名的渐变_348-9" x1="363.07" y1="123.58" x2="281.02" y2="205.63" xlink:href="#未命名的渐变_348"/><linearGradient id="未命名的渐变_348-10" x1="347.41" y1="136.07" x2="264.85" y2="218.63" xlink:href="#未命名的渐变_348"/><linearGradient id="未命名的渐变_348-11" x1="317.61" y1="68.64" x2="219.17" y2="167.09" xlink:href="#未命名的渐变_348"/><linearGradient id="未命名的渐变_348-12" x1="238.41" y1="163.02" x2="236.3" y2="165.14" xlink:href="#未命名的渐变_348"/><linearGradient id="未命名的渐变_348-13" x1="619.98" y1="79.51" x2="446.99" y2="252.5" xlink:href="#未命名的渐变_348"/><linearGradient id="未命名的渐变_348-14" x1="782.34" y1="85.78" x2="681.19" y2="186.94" xlink:href="#未命名的渐变_348"/></defs><title>logo资源 6</title><g id="图层_2" data-name="图层 2"><g id="图层_1-2" data-name="图层 1"><path class="cls-1" d="M.57,232.33a37.47,37.47,0,0,0-.57-4.9H.16C.38,229,.49,230.68.57,232.33Z"/><path class="cls-2" d="M142.3,175.64c-1,30.79-22.47,55.54-49.24,56.64-.62,0-1.25.05-1.89.05s-1.26,0-1.88-.05c-26.77-1.1-48.28-25.85-49.24-56.64,0-.71,0-1.44,0-2.17V4h7.94c12.57,0,22.77,11.73,22.77,26.2V173.47c0,.43,0,.85,0,1.25a45.43,45.43,0,0,0,4,17.68,38.64,38.64,0,0,0,16.45,18.29,31.64,31.64,0,0,0,31.81-.63C134,203.51,141.63,190.63,142.3,175.64Z"/><path class="cls-3" d="M213.6,53.4h-.15c-1.92-12.87-9.07-23.7-18.83-29.52a31.64,31.64,0,0,0-31.81-.63,38.64,38.64,0,0,0-16.45,18.29,45.43,45.43,0,0,0-4,17.68c0,.4,0,.82,0,1.25v113c0,.73,0,1.46,0,2.17-.67,15-8.35,27.87-19.32,34.42a31.64,31.64,0,0,1-31.81.63A38.64,38.64,0,0,1,74.72,192.4a45.43,45.43,0,0,1-4-17.68c.55,12,8.92,21.64,19.36,22.27.35,0,.72,0,1.08,0s.74,0,1.09,0c10.44-.63,18.81-10.26,19.36-22.27,0-.4,0-.82,0-1.25v-113c0-.73,0-1.46,0-2.17.72-23.21,13.12-43,30.67-51.79a44.84,44.84,0,0,1,17.29-4.76c.43,0,.86-.07,1.29-.09.61,0,1.25,0,1.88,0s1.27,0,1.89,0C190,2.69,210.65,24.92,213.6,53.4Z"/><path class="cls-4" d="M214,60.47V230H203.75c-11.3,0-20.47-10.55-20.47-23.55v-146c0-.43,0-.85,0-1.25-.55-12-8.92-21.64-19.36-22.27-.35,0-.72,0-1.09,0s-.73,0-1.08,0c-10.44.63-18.81,10.26-19.36,22.27a45.43,45.43,0,0,1,4-17.68,38.64,38.64,0,0,1,16.45-18.29,31.64,31.64,0,0,1,31.81.63c9.76,5.82,16.91,16.65,18.83,29.52a41.27,41.27,0,0,1,.49,4.9C214,59,214,59.74,214,60.47Z"/><path class="cls-5" d="M.61,225.26v7.07c0-.73,0-1.46,0-2.17a37.47,37.47,0,0,0-.57-4.9Z"/><path class="cls-6" d="M265.47,110.62v51.31c0-.76,0-1.55.06-2.31a56.46,56.46,0,0,1,42.18-52.24,56.53,56.53,0,0,1,14.08-1.78,56.42,56.42,0,0,1,56.33,56.33,70.41,70.41,0,0,0-70.41-70.41c-.73,0-1.43,0-2.14.06s-1.29.06-1.94.11c-.06,0-.08,0-.11,0A56,56,0,0,0,265.47,110.62Z"/><path class="cls-7" d="M265.47,105.6v5a56,56,0,0,1,38-18.93A70.2,70.2,0,0,0,265.47,105.6Z"/><path class="cls-8" d="M237.31,161.93c0,1.4,0,2.81.14,4.22h0C237.37,164.77,237.31,163.36,237.31,161.93Z"/><path class="cls-9" d="M265.53,159.62a42.26,42.26,0,0,1,39.87-39.88c.77,0,1.55-.06,2.31-.06s1.55,0,2.31.06a56.45,56.45,0,0,1,52.24,42.19A56.41,56.41,0,0,1,364,176a56.42,56.42,0,0,1-56.33,56.32,70.4,70.4,0,0,0,70.41-70.4,56.32,56.32,0,0,0-112.59-2.31Z"/><path class="cls-10" d="M237.45,166.15a70.37,70.37,0,0,0,70.26,66.18A56.32,56.32,0,0,0,310,119.74a42.27,42.27,0,0,1,39.88,39.88c0,.76.06,1.55.06,2.31s0,1.55-.06,2.31a56.45,56.45,0,0,1-42.19,52.23,56.41,56.41,0,0,1-14.08,1.78,56.41,56.41,0,0,1-56.15-52.1Z"/><path class="cls-11" d="M237.31,0V161.93c0,1.43.06,2.84.17,4.22a56.32,56.32,0,0,0,112.42-1.91A42.26,42.26,0,0,1,310,204.11c-.76,0-1.55.06-2.31.06s-1.54,0-2.31-.06a42.25,42.25,0,0,1-39.87-39.87c0-.76-.06-1.55-.06-2.31V28.16A28.16,28.16,0,0,0,237.31,0Z"/><path class="cls-12" d="M237.31,161.93v4.22h.17C237.37,164.77,237.31,163.36,237.31,161.93Z"/><path class="cls-13" d="M660.94,120.46A70.09,70.09,0,0,0,611.3,99.91a70.83,70.83,0,0,0-10.07.8l-1.73.25q-1.62.29-3.24.63t-3.06.75c-.79.21-1.59.39-2.37.63-1.8.54-3.57,1.18-5.32,1.86-.53.21-1,.44-1.58.67-1.53.64-3,1.34-4.52,2.09l-1.09.55c-1.89,1-3.74,2.09-5.55,3.28l-.3.21c-1.7,1.13-3.36,2.36-5,3.66l-.85.68c-1.71,1.42-3.39,2.89-5,4.49L537.5,144.57l17.84,17,21.13-21.12h0L582,135c.95-.95,1.93-1.82,2.94-2.66l.52-.42c.91-.72,1.83-1.4,2.78-2,.13-.08.26-.18.39-.27,1-.68,2.09-1.29,3.16-1.87.3-.16.61-.3.91-.45.75-.38,1.52-.73,2.28-1.06.43-.19.86-.37,1.3-.54.73-.29,1.46-.53,2.2-.77.89-.29,1.78-.54,2.68-.77l1.21-.3c.76-.16,1.52-.31,2.29-.43l.55-.08A41.85,41.85,0,0,1,624.32,125v0a41.22,41.22,0,0,1,16.33,10,43.75,43.75,0,0,1,0,62l-3.28,3.28a36.83,36.83,0,0,1-52.13,0l-79.93-79.8a70.2,70.2,0,0,0-99.27,0,64.34,64.34,0,0,0,0,91.06l.39.42a69.58,69.58,0,0,0,78.51,13.86h0c1.73-.8,3.43-1.67,5.1-2.63.21-.11.41-.24.62-.36,1.48-.86,2.94-1.75,4.37-2.74.7-.47,1.37-1,2.05-1.51,1-.71,1.93-1.39,2.86-2.16a64.28,64.28,0,0,0,4.93-4.45l23.67-23.61-17.08-17.78-18.19,18.16v0l-.66.68-.9.9-10,10c-.53.52-1.08,1-1.63,1.49-.3.26-.58.54-.88.79-.69.57-1.4,1.1-2.12,1.61-.17.12-.34.26-.52.38-.84.57-1.7,1.11-2.58,1.61l-.1.06c-.92.52-1.85,1-2.8,1.44h0a36.86,36.86,0,0,1-41.52-7.38L426.29,197a43.85,43.85,0,0,1,0-62A41.52,41.52,0,0,1,485,135l31,31,46,45.95a69.66,69.66,0,0,0,98.48,0l.4-.42A64.4,64.4,0,0,0,660.94,120.46Z"/><path class="cls-14" d="M709.38,192.82q0,19.55,7.54,29.52t23.76,10h14.45a.74.74,0,0,0,.74-.74V206.41a2,2,0,0,0-2-1.95H743.25a6.32,6.32,0,0,1-5.66-3q-1.94-2.94-1.94-8.4V102.23h26.54V79.77H735.65V39.1H709.38V52.87a26.89,26.89,0,0,1-26.89,26.9h-2.37v22.46h29.26Z"/></g></g></svg>